<svg xmlns="http://www.w3.org/2000/svg" viewBox="0 0 800 600" width="800" height="600">
<rect width="800" height="600" fill="#F3EDDF"/>
<rect x="0" y="0" width="800" height="72" fill="#3A0E12"/>
<circle cx="40" cy="36" r="22" fill="#C9A24B"/>
<text x="40" y="42" font-family="Cormorant Garamond, Georgia, serif" font-size="22" fill="#3A0E12" text-anchor="middle" font-style="italic" font-weight="700">B</text>
<text x="80" y="34" font-family="Cormorant Garamond, Georgia, serif" font-size="20" fill="#F3EDDF" font-style="italic">Biagio</text>
<text x="80" y="54" font-family="Inter, Arial, sans-serif" font-size="12" fill="#C9A24B">Your Italian AI tutor · online</text>
<circle cx="770" cy="36" r="5" fill="#28C840"/>
<rect x="30" y="100" width="242.5" height="50" rx="16" fill="#fff" stroke="#e5d8c0" stroke-width="1"/>
<text x="50" y="130" font-family="Inter, Arial, sans-serif" font-size="14" fill="#3A0E12">Ciao Diane! Come stai oggi?</text>
<text x="48" y="180" font-family="Inter, Arial, sans-serif" font-size="10" fill="#7a5a5d">Biagio · just now</text>
<rect x="458" y="200" width="312" height="50" rx="16" fill="#3A0E12"/>
<text x="614.0" y="230" font-family="Inter, Arial, sans-serif" font-size="14" fill="#F3EDDF" text-anchor="middle">Ciao Biagio! Io sono bene, grazie.</text>
<text x="770" y="268" font-family="Inter, Arial, sans-serif" font-size="10" fill="#7a5a5d" text-anchor="end">Diane · read</text>
<rect x="30" y="290" width="560" height="60" rx="16" fill="#fff" stroke="#e5d8c0" stroke-width="2"/>
<text x="48" y="315" font-family="Inter, Arial, sans-serif" font-size="12" fill="#B65538" font-weight="600">✎ Quasi perfetto! Piccola correzione:</text>
<text x="48" y="338" font-family="Cormorant Garamond, Georgia, serif" font-size="14" fill="#3A0E12" font-style="italic">→ "Io sto bene, grazie."  (state of being = STARE, not ESSERE)</text>
<text x="48" y="370" font-family="Inter, Arial, sans-serif" font-size="10" fill="#7a5a5d">Biagio · just now</text>
<rect x="538" y="390" width="232" height="50" rx="16" fill="#3A0E12"/>
<text x="654.0" y="420" font-family="Inter, Arial, sans-serif" font-size="14" fill="#F3EDDF" text-anchor="middle">Ah! Grazie. Io sto bene.</text>
<text x="770" y="458" font-family="Inter, Arial, sans-serif" font-size="10" fill="#7a5a5d" text-anchor="end">Diane · read</text>
<rect x="30" y="480" width="407.5" height="50" rx="16" fill="#fff" stroke="#e5d8c0" stroke-width="1"/>
<text x="50" y="510" font-family="Inter, Arial, sans-serif" font-size="14" fill="#3A0E12">Bravissima! Ora, dimmi cosa hai fatto stamattina.</text>
<text x="48" y="560" font-family="Inter, Arial, sans-serif" font-size="10" fill="#7a5a5d">Biagio · just now</text>
<rect x="0" y="540" width="800" height="60" fill="#fff" stroke="#e5d8c0"/>
<rect x="20" y="555" width="660" height="34" rx="17" fill="#F3EDDF" stroke="#c9c0ac"/>
<text x="35" y="576" font-family="Inter, Arial, sans-serif" font-size="13" fill="#8a7860">Rispondi in italiano...</text>
<rect x="690" y="555" width="90" height="34" rx="17" fill="#C9A24B"/>
<text x="735" y="576" font-family="Inter, Arial, sans-serif" font-size="13" fill="#3A0E12" text-anchor="middle" font-weight="700">Invia →</text>
</svg>