<svg xmlns="http://www.w3.org/2000/svg" viewBox="0 0 1600 900" width="1600" height="900">
<rect width="1600" height="900" fill="#0a0203"/>
<g>
  <rect x="0" y="0" width="1600" height="44" rx="10" fill="#EAE4D6"/>
  <rect x="0" y="18" width="1600" height="26" fill="#EAE4D6"/>
  <circle cx="18" cy="22" r="6" fill="#FF5F57"/>
  <circle cx="38" cy="22" r="6" fill="#FEBC2E"/>
  <circle cx="58" cy="22" r="6" fill="#28C840"/>
  <rect x="140" y="10" width="1320" height="24" rx="12" fill="#F7F2E6" stroke="#c9c0ac"/>
  <text x="800.0" y="27" font-family="Inter, Arial, sans-serif" font-size="13" fill="#3A0E12" text-anchor="middle">🔒 clubitalia.live/classroom/chiara-B1</text>
</g>
<rect x="0" y="44" width="1600" height="856" fill="#22080B"/>
<rect x="1380" y="60" width="200" height="36" rx="18" fill="rgba(58,14,18,0.85)" stroke="#C9A24B"/>
<circle cx="1400" cy="78" r="6" fill="#e74c3c"/>
<text x="1415" y="83" font-family="Inter, Arial, sans-serif" font-size="14" font-weight="700" fill="#F3EDDF">LIVE · 32:11 / 85:00</text>
<rect x="20" y="60" width="180" height="32" rx="16" fill="rgba(201,162,75,0.15)" stroke="#C9A24B"/>
<text x="110" y="81" font-family="Inter, Arial, sans-serif" font-size="13" fill="#C9A24B" text-anchor="middle" font-weight="600">🖥 Chiara is presenting</text>
<rect x="20" y="110" width="1240" height="570" rx="10" fill="#2a1810" stroke="#C9A24B" stroke-width="3"/>
<defs>
      <linearGradient id="paintGrad" x1="0" y1="0" x2="0" y2="1">
        <stop offset="0" stop-color="#c9a06a"/>
        <stop offset="0.5" stop-color="#8b5a3c"/>
        <stop offset="1" stop-color="#3a2010"/>
      </linearGradient>
    </defs>
<rect x="40" y="130" width="1200" height="530" fill="url(#paintGrad)"/>
<ellipse cx="420" cy="450" rx="80" ry="130" fill="rgba(255,240,200,0.4)"/>
<circle cx="420" cy="310" r="45" fill="rgba(255,240,200,0.5)"/>
<ellipse cx="720" cy="450" rx="80" ry="130" fill="rgba(200,120,80,0.5)"/>
<circle cx="720" cy="310" r="45" fill="rgba(255,220,180,0.5)"/>
<circle cx="420" cy="305" r="55" fill="none" stroke="#C9A24B" stroke-width="2" opacity="0.7"/>
<text x="60" y="180" font-family="Cormorant Garamond, Georgia, serif" font-size="34" fill="#F3EDDF" font-style="italic">L'Annunciazione</text>
<text x="60" y="210" font-family="Inter, Arial, sans-serif" font-size="16" fill="#C9A24B">Leonardo da Vinci · 1472 · Uffizi, Firenze</text>
<rect x="532" y="272" width="92" height="26" rx="13" fill="rgba(58,14,18,0.9)" stroke="#C9A24B"/>
<text x="542" y="290" font-family="Inter, Arial, sans-serif" font-size="14" fill="#F3EDDF" font-style="italic">l'angelo</text>
<rect x="832" y="322" width="65" height="26" rx="13" fill="rgba(58,14,18,0.9)" stroke="#C9A24B"/>
<text x="842" y="340" font-family="Inter, Arial, sans-serif" font-size="14" fill="#F3EDDF" font-style="italic">Maria</text>
<rect x="322" y="492" width="101" height="26" rx="13" fill="rgba(58,14,18,0.9)" stroke="#C9A24B"/>
<text x="332" y="510" font-family="Inter, Arial, sans-serif" font-size="14" fill="#F3EDDF" font-style="italic">il giglio</text>
<rect x="842" y="522" width="92" height="26" rx="13" fill="rgba(58,14,18,0.9)" stroke="#C9A24B"/>
<text x="852" y="540" font-family="Inter, Arial, sans-serif" font-size="14" fill="#F3EDDF" font-style="italic">il libro</text>
<rect x="532" y="582" width="200" height="26" rx="13" fill="rgba(58,14,18,0.9)" stroke="#C9A24B"/>
<text x="542" y="600" font-family="Inter, Arial, sans-serif" font-size="14" fill="#F3EDDF" font-style="italic">il paesaggio toscano</text>
<rect x="1280" y="110" width="300" height="200" rx="8" fill="#1a0508" stroke="#C9A24B" stroke-width="4"/><circle cx="1430.0" cy="194.0" r="44.0" fill="#F0C8A0"/><path d="M 1390.4 189.6 Q 1386.0 147.8 1430.0 147.8 Q 1474.0 147.8 1469.6 189.6 L 1467.4 178.6 Q 1430.0 161.0 1392.6 178.6 Z" fill="#3a2010"/><circle cx="1417.68" cy="191.8" r="2.6399999999999997" fill="#2C1810"/><circle cx="1442.32" cy="191.8" r="2.6399999999999997" fill="#2C1810"/><path d="M 1420.32 206.32 Q 1430.0 212.48 1439.68 206.32" stroke="#7a3020" stroke-width="2.2" fill="none" stroke-linecap="round"/><rect x="1280" y="282" width="300" height="28" fill="rgba(0,0,0,0.55)" rx="0"/><text x="1290" y="300" font-family="Inter, Arial, sans-serif" font-size="16" fill="#F3EDDF" font-weight="600">Chiara Bellini</text><text x="1570" y="300" font-family="Inter, Arial, sans-serif" font-size="14" fill="#C9A24B" text-anchor="end">Firenze · Teacher</text><circle cx="1564" cy="126" r="10" fill="rgba(0,0,0,0.6)"/><rect x="1561" y="121" width="6" height="10" rx="3" fill="#F3EDDF"/><rect x="1288" y="118" width="90" height="22" rx="4" fill="#C9A24B"/><text x="1333" y="133" font-family="Inter, Arial, sans-serif" font-size="12" font-weight="700" fill="#3A0E12" text-anchor="middle">SPEAKING</text>
<rect x="1280" y="330" width="300" height="350" rx="12" fill="#150406" stroke="#3a1a1c"/>
<rect x="1280" y="330" width="300" height="40" rx="12" fill="#22080B"/>
<text x="1294" y="356" font-family="Inter, Arial, sans-serif" font-size="13" fill="#C9A24B" font-weight="700">Chat</text>
<text x="1294" y="386" font-family="Inter, Arial, sans-serif" font-size="10" fill="#8a7860">Emma · Denver</text>
<rect x="1294" y="392" width="272" height="46" rx="6" fill="rgba(201,162,75,0.08)"/>
<text x="1302" y="418" font-family="Inter, Arial, sans-serif" font-size="12" fill="#F3EDDF">Bellissima!</text>
<text x="1294" y="456" font-family="Inter, Arial, sans-serif" font-size="10" fill="#8a7860">Tom · Austin</text>
<rect x="1294" y="462" width="272" height="46" rx="6" fill="rgba(201,162,75,0.08)"/>
<text x="1302" y="488" font-family="Inter, Arial, sans-serif" font-size="12" fill="#F3EDDF">Cosa significa 'giglio'?</text>
<text x="1294" y="526" font-family="Inter, Arial, sans-serif" font-size="10" fill="#8a7860">Chiara · Teacher</text>
<rect x="1294" y="532" width="272" height="46" rx="6" fill="rgba(201,162,75,0.08)"/>
<text x="1302" y="558" font-family="Inter, Arial, sans-serif" font-size="12" fill="#F3EDDF">Lily flower — simbolo di purezza</text>
<text x="1294" y="596" font-family="Inter, Arial, sans-serif" font-size="10" fill="#8a7860">Anna · Portland</text>
<rect x="1294" y="602" width="272" height="46" rx="6" fill="rgba(201,162,75,0.08)"/>
<text x="1302" y="628" font-family="Inter, Arial, sans-serif" font-size="12" fill="#F3EDDF">Grazie, molto interessante</text>
<rect x="20" y="700" width="190" height="90" rx="8" fill="#1a0508" stroke="#3a1a1c" stroke-width="1.5"/><circle cx="115.0" cy="737.8" r="19.8" fill="#F0C9A8"/><path d="M 97.18 735.8199999999999 Q 95.2 717.01 115.0 717.01 Q 134.8 717.01 132.82 735.8199999999999 L 131.83 730.87 Q 115.0 722.9499999999999 98.17 730.87 Z" fill="#7a4020"/><circle cx="109.456" cy="736.81" r="1.188" fill="#2C1810"/><circle cx="120.544" cy="736.81" r="1.188" fill="#2C1810"/><path d="M 110.644 743.3439999999999 Q 115.0 746.116 119.356 743.3439999999999" stroke="#7a3020" stroke-width="0.9900000000000001" fill="none" stroke-linecap="round"/><rect x="20" y="762" width="190" height="28" fill="rgba(0,0,0,0.55)" rx="0"/><text x="30" y="780" font-family="Inter, Arial, sans-serif" font-size="13" fill="#F3EDDF" font-weight="600">Emma</text><text x="200" y="780" font-family="Inter, Arial, sans-serif" font-size="11" fill="#C9A24B" text-anchor="end">Denver</text><circle cx="194" cy="716" r="10" fill="rgba(0,0,0,0.6)"/><rect x="191" y="711" width="6" height="10" rx="3" fill="#F3EDDF"/>
<rect x="218" y="700" width="190" height="90" rx="8" fill="#1a0508" stroke="#3a1a1c" stroke-width="1.5"/><circle cx="313.0" cy="737.8" r="19.8" fill="#D9A47A"/><path d="M 295.18 735.8199999999999 Q 293.2 717.01 313.0 717.01 Q 332.8 717.01 330.82 735.8199999999999 L 329.83 730.87 Q 313.0 722.9499999999999 296.17 730.87 Z" fill="#2a1005"/><circle cx="307.456" cy="736.81" r="1.188" fill="#2C1810"/><circle cx="318.544" cy="736.81" r="1.188" fill="#2C1810"/><path d="M 308.644 743.3439999999999 Q 313.0 746.116 317.356 743.3439999999999" stroke="#7a3020" stroke-width="0.9900000000000001" fill="none" stroke-linecap="round"/><rect x="218" y="762" width="190" height="28" fill="rgba(0,0,0,0.55)" rx="0"/><text x="228" y="780" font-family="Inter, Arial, sans-serif" font-size="13" fill="#F3EDDF" font-weight="600">Tom</text><text x="398" y="780" font-family="Inter, Arial, sans-serif" font-size="11" fill="#C9A24B" text-anchor="end">Austin</text><circle cx="392" cy="716" r="10" fill="rgba(0,0,0,0.6)"/><rect x="389" y="711" width="6" height="10" rx="3" fill="#F3EDDF"/>
<rect x="416" y="700" width="190" height="90" rx="8" fill="#1a0508" stroke="#3a1a1c" stroke-width="1.5"/><circle cx="511.0" cy="737.8" r="19.8" fill="#F5D5B8"/><path d="M 493.18 735.8199999999999 Q 491.2 717.01 511.0 717.01 Q 530.8 717.01 528.82 735.8199999999999 L 527.83 730.87 Q 511.0 722.9499999999999 494.17 730.87 Z" fill="#8B5A2B"/><circle cx="505.456" cy="736.81" r="1.188" fill="#2C1810"/><circle cx="516.544" cy="736.81" r="1.188" fill="#2C1810"/><path d="M 506.644 743.3439999999999 Q 511.0 746.116 515.356 743.3439999999999" stroke="#7a3020" stroke-width="0.9900000000000001" fill="none" stroke-linecap="round"/><rect x="416" y="762" width="190" height="28" fill="rgba(0,0,0,0.55)" rx="0"/><text x="426" y="780" font-family="Inter, Arial, sans-serif" font-size="13" fill="#F3EDDF" font-weight="600">Anna</text><text x="596" y="780" font-family="Inter, Arial, sans-serif" font-size="11" fill="#C9A24B" text-anchor="end">Portland</text><circle cx="590" cy="716" r="10" fill="rgba(0,0,0,0.6)"/><rect x="587" y="711" width="6" height="10" rx="3" fill="#F3EDDF"/>
<rect x="614" y="700" width="190" height="90" rx="8" fill="#1a0508" stroke="#3a1a1c" stroke-width="1.5"/><circle cx="709.0" cy="737.8" r="19.8" fill="#B8845C"/><path d="M 691.18 735.8199999999999 Q 689.2 717.01 709.0 717.01 Q 728.8 717.01 726.82 735.8199999999999 L 725.83 730.87 Q 709.0 722.9499999999999 692.17 730.87 Z" fill="#1a0808"/><circle cx="703.456" cy="736.81" r="1.188" fill="#2C1810"/><circle cx="714.544" cy="736.81" r="1.188" fill="#2C1810"/><path d="M 704.644 743.3439999999999 Q 709.0 746.116 713.356 743.3439999999999" stroke="#7a3020" stroke-width="0.9900000000000001" fill="none" stroke-linecap="round"/><rect x="614" y="762" width="190" height="28" fill="rgba(0,0,0,0.55)" rx="0"/><text x="624" y="780" font-family="Inter, Arial, sans-serif" font-size="13" fill="#F3EDDF" font-weight="600">Kevin</text><text x="794" y="780" font-family="Inter, Arial, sans-serif" font-size="11" fill="#C9A24B" text-anchor="end">Boston</text><circle cx="788" cy="716" r="10" fill="rgba(0,0,0,0.6)"/><rect x="785" y="711" width="6" height="10" rx="3" fill="#F3EDDF"/>
<rect x="812" y="700" width="190" height="90" rx="8" fill="#1a0508" stroke="#3a1a1c" stroke-width="1.5"/><circle cx="907.0" cy="737.8" r="19.8" fill="#EFC8A5"/><path d="M 889.18 735.8199999999999 Q 887.2 717.01 907.0 717.01 Q 926.8 717.01 924.82 735.8199999999999 L 923.83 730.87 Q 907.0 722.9499999999999 890.17 730.87 Z" fill="#6B3410"/><circle cx="901.456" cy="736.81" r="1.188" fill="#2C1810"/><circle cx="912.544" cy="736.81" r="1.188" fill="#2C1810"/><path d="M 902.644 743.3439999999999 Q 907.0 746.116 911.356 743.3439999999999" stroke="#7a3020" stroke-width="0.9900000000000001" fill="none" stroke-linecap="round"/><rect x="812" y="762" width="190" height="28" fill="rgba(0,0,0,0.55)" rx="0"/><text x="822" y="780" font-family="Inter, Arial, sans-serif" font-size="13" fill="#F3EDDF" font-weight="600">Rachel</text><text x="992" y="780" font-family="Inter, Arial, sans-serif" font-size="11" fill="#C9A24B" text-anchor="end">SF</text><circle cx="986" cy="716" r="10" fill="rgba(0,0,0,0.6)"/><rect x="983" y="711" width="6" height="10" rx="3" fill="#F3EDDF"/>
<rect x="1010" y="700" width="190" height="90" rx="8" fill="#1a0508" stroke="#3a1a1c" stroke-width="1.5"/><circle cx="1105.0" cy="737.8" r="19.8" fill="#C89670"/><path d="M 1087.18 735.8199999999999 Q 1085.2 717.01 1105.0 717.01 Q 1124.8 717.01 1122.82 735.8199999999999 L 1121.83 730.87 Q 1105.0 722.9499999999999 1088.17 730.87 Z" fill="#1a0808"/><circle cx="1099.456" cy="736.81" r="1.188" fill="#2C1810"/><circle cx="1110.544" cy="736.81" r="1.188" fill="#2C1810"/><path d="M 1100.644 743.3439999999999 Q 1105.0 746.116 1109.356 743.3439999999999" stroke="#7a3020" stroke-width="0.9900000000000001" fill="none" stroke-linecap="round"/><rect x="1010" y="762" width="190" height="28" fill="rgba(0,0,0,0.55)" rx="0"/><text x="1020" y="780" font-family="Inter, Arial, sans-serif" font-size="13" fill="#F3EDDF" font-weight="600">David</text><text x="1190" y="780" font-family="Inter, Arial, sans-serif" font-size="11" fill="#C9A24B" text-anchor="end">Miami</text><circle cx="1184" cy="716" r="10" fill="rgba(0,0,0,0.6)"/><rect x="1181" y="711" width="6" height="10" rx="3" fill="#F3EDDF"/>
<rect x="1208" y="700" width="190" height="90" rx="8" fill="#1a0508" stroke="#3a1a1c" stroke-width="1.5"/><circle cx="1303.0" cy="737.8" r="19.8" fill="#F0C8A0"/><path d="M 1285.18 735.8199999999999 Q 1283.2 717.01 1303.0 717.01 Q 1322.8 717.01 1320.82 735.8199999999999 L 1319.83 730.87 Q 1303.0 722.9499999999999 1286.17 730.87 Z" fill="#5C2E0F"/><circle cx="1297.456" cy="736.81" r="1.188" fill="#2C1810"/><circle cx="1308.544" cy="736.81" r="1.188" fill="#2C1810"/><path d="M 1298.644 743.3439999999999 Q 1303.0 746.116 1307.356 743.3439999999999" stroke="#7a3020" stroke-width="0.9900000000000001" fill="none" stroke-linecap="round"/><rect x="1208" y="762" width="190" height="28" fill="rgba(0,0,0,0.55)" rx="0"/><text x="1218" y="780" font-family="Inter, Arial, sans-serif" font-size="13" fill="#F3EDDF" font-weight="600">Julie</text><text x="1388" y="780" font-family="Inter, Arial, sans-serif" font-size="11" fill="#C9A24B" text-anchor="end">Seattle</text><circle cx="1382" cy="716" r="10" fill="rgba(0,0,0,0.6)"/><rect x="1379" y="711" width="6" height="10" rx="3" fill="#F3EDDF"/>
<rect x="1406" y="700" width="190" height="90" rx="8" fill="#1a0508" stroke="#3a1a1c" stroke-width="1.5"/><circle cx="1501.0" cy="737.8" r="19.8" fill="#D8A075"/><path d="M 1483.18 735.8199999999999 Q 1481.2 717.01 1501.0 717.01 Q 1520.8 717.01 1518.82 735.8199999999999 L 1517.83 730.87 Q 1501.0 722.9499999999999 1484.17 730.87 Z" fill="#302010"/><circle cx="1495.456" cy="736.81" r="1.188" fill="#2C1810"/><circle cx="1506.544" cy="736.81" r="1.188" fill="#2C1810"/><path d="M 1496.644 743.3439999999999 Q 1501.0 746.116 1505.356 743.3439999999999" stroke="#7a3020" stroke-width="0.9900000000000001" fill="none" stroke-linecap="round"/><rect x="1406" y="762" width="190" height="28" fill="rgba(0,0,0,0.55)" rx="0"/><text x="1416" y="780" font-family="Inter, Arial, sans-serif" font-size="13" fill="#F3EDDF" font-weight="600">Mark</text><text x="1586" y="780" font-family="Inter, Arial, sans-serif" font-size="11" fill="#C9A24B" text-anchor="end">Dallas</text><circle cx="1580" cy="716" r="10" fill="rgba(0,0,0,0.6)"/><rect x="1577" y="711" width="6" height="10" rx="3" fill="#F3EDDF"/>
<rect x="300.0" y="800" width="1000" height="24" rx="0" fill="rgba(0,0,0,0)"/>
<rect x="0" y="828" width="1600" height="62" fill="#0a0203"/>
<rect x="300.0" y="844" width="1000" height="36" rx="8" fill="rgba(0,0,0,0.9)" stroke="#C9A24B"/>
<text x="800.0" y="868" font-family="Inter, Arial, sans-serif" font-size="15" fill="#F3EDDF" text-anchor="middle">CHIARA: "Guardate il gesto dell'angelo — è così delicato, così rinascimentale."</text>
</svg>